<svg width="25" height="24" viewBox="0 0 25 24" fill="none" xmlns="http://www.w3.org/2000/svg">
<path d="M16.5233 2H8.14331C4.50331 2 2.33331 4.17 2.33331 7.81V16.18C2.33331 19.83 4.50331 22 8.14331 22H16.5133C20.1533 22 22.3233 19.83 22.3233 16.19V7.81C22.3333 4.17 20.1633 2 16.5233 2ZM18.3333 12.75H13.0833V18C13.0833 18.41 12.7433 18.75 12.3333 18.75C11.9233 18.75 11.5833 18.41 11.5833 18V12.75H6.33331C5.92331 12.75 5.58331 12.41 5.58331 12C5.58331 11.59 5.92331 11.25 6.33331 11.25H11.5833V6C11.5833 5.59 11.9233 5.25 12.3333 5.25C12.7433 5.25 13.0833 5.59 13.0833 6V11.25H18.3333C18.7433 11.25 19.0833 11.59 19.0833 12C19.0833 12.41 18.7433 12.75 18.3333 12.75Z" fill="#171717"/>
</svg>
