<svg width="80" height="80" viewBox="0 0 80 80" fill="none" xmlns="http://www.w3.org/2000/svg">
<path d="M73.1001 22.5332L61.8668 67.6333C61.0668 71 58.0668 73.3332 54.6002 73.3332H10.8001C5.76677 73.3332 2.16683 68.3997 3.66683 63.5663L17.7001 18.5C18.6668 15.3667 21.5668 13.1997 24.8335 13.1997H65.8335C69.0001 13.1997 71.6335 15.1331 72.7335 17.7997C73.3668 19.2331 73.5001 20.8665 73.1001 22.5332Z" stroke="#BFC3C6" stroke-width="2" stroke-miterlimit="10"/>
<path d="M53.3335 73.3333H69.2668C73.5668 73.3333 76.9335 69.7 76.6335 65.4L73.3335 20" stroke="#BFC3C6" stroke-width="2" stroke-miterlimit="10" stroke-linecap="round" stroke-linejoin="round"/>
<path d="M32.2666 21.2665L35.7333 6.8667" stroke="#BFC3C6" stroke-width="2" stroke-miterlimit="10" stroke-linecap="round" stroke-linejoin="round"/>
<path d="M54.6001 21.3L57.7334 6.8335" stroke="#BFC3C6" stroke-width="2" stroke-miterlimit="10" stroke-linecap="round" stroke-linejoin="round"/>
<path d="M25.6665 40H52.3332" stroke="#BFC3C6" stroke-width="2" stroke-miterlimit="10" stroke-linecap="round" stroke-linejoin="round"/>
<path d="M22.3335 53.3335H49.0002" stroke="#BFC3C6" stroke-width="2" stroke-miterlimit="10" stroke-linecap="round" stroke-linejoin="round"/>
</svg>
