<svg width="16" height="16" viewBox="0 0 16 16" fill="none" xmlns="http://www.w3.org/2000/svg">
<path d="M12 3.99998C11.5933 3.99998 11.22 3.76665 11.0333 3.40665L10.5533 2.43998C10.2467 1.83331 9.44668 1.33331 8.76668 1.33331H7.24001C6.55334 1.33331 5.75334 1.83331 5.44668 2.43998L4.96668 3.40665C4.78001 3.76665 4.40668 3.99998 4.00001 3.99998C2.55334 3.99998 1.40668 5.21998 1.50001 6.65998L1.84668 12.1666C1.92668 13.54 2.66668 14.6666 4.50668 14.6666H11.4933C13.3333 14.6666 14.0667 13.54 14.1533 12.1666L14.5 6.65998C14.5933 5.21998 13.4467 3.99998 12 3.99998ZM7.00001 4.83331H9.00001C9.27334 4.83331 9.50001 5.05998 9.50001 5.33331C9.50001 5.60665 9.27334 5.83331 9.00001 5.83331H7.00001C6.72668 5.83331 6.50001 5.60665 6.50001 5.33331C6.50001 5.05998 6.72668 4.83331 7.00001 4.83331ZM8.00001 12.08C6.76001 12.08 5.74668 11.0733 5.74668 9.82665C5.74668 8.57998 6.75334 7.57331 8.00001 7.57331C9.24668 7.57331 10.2533 8.57998 10.2533 9.82665C10.2533 11.0733 9.24001 12.08 8.00001 12.08Z" fill="#F1F1F1"/>
</svg>
