<svg width="32" height="33" viewBox="0 0 32 33" fill="none" xmlns="http://www.w3.org/2000/svg">
<path d="M12 13.8333C13.4728 13.8333 14.6667 12.6394 14.6667 11.1667C14.6667 9.69391 13.4728 8.5 12 8.5C10.5273 8.5 9.33337 9.69391 9.33337 11.1667C9.33337 12.6394 10.5273 13.8333 12 13.8333Z" stroke="#BFC3C6" stroke-width="1.5" stroke-linecap="round" stroke-linejoin="round"/>
<path d="M17.3333 3.16666H12C5.33329 3.16666 2.66663 5.83332 2.66663 12.5V20.5C2.66663 27.1667 5.33329 29.8333 12 29.8333H20C26.6666 29.8333 29.3333 27.1667 29.3333 20.5V13.8333" stroke="#BFC3C6" stroke-width="1.5" stroke-linecap="round" stroke-linejoin="round"/>
<path d="M21 7.16666H28.3333" stroke="#BFC3C6" stroke-width="1.5" stroke-linecap="round"/>
<path d="M24.6667 10.8333V3.5" stroke="#BFC3C6" stroke-width="1.5" stroke-linecap="round"/>
<path d="M3.56006 25.7667L10.1334 21.3533C11.1867 20.6467 12.7067 20.7267 13.6534 21.54L14.0934 21.9267C15.1334 22.82 16.8134 22.82 17.8534 21.9267L23.4001 17.1667C24.4401 16.2733 26.1201 16.2733 27.1601 17.1667L29.3334 19.0333" stroke="#BFC3C6" stroke-width="1.5" stroke-linecap="round" stroke-linejoin="round"/>
</svg>
