<svg width="65" height="64" viewBox="0 0 65 64" fill="none" xmlns="http://www.w3.org/2000/svg">
<path d="M57.9933 28.64L54.3667 24.4267C53.6733 23.6267 53.1133 22.1333 53.1133 21.0667V16.5333C53.1133 13.7067 50.7933 11.3867 47.9667 11.3867H43.4333C42.3933 11.3867 40.8733 10.8267 40.0733 10.1333L35.86 6.50666C34.02 4.93333 31.0067 4.93333 29.14 6.50666L24.9533 10.16C24.1533 10.8267 22.6333 11.3867 21.5933 11.3867H16.98C14.1533 11.3867 11.8333 13.7067 11.8333 16.5333V21.0933C11.8333 22.1333 11.2733 23.6267 10.6067 24.4267L7.00668 28.6667C5.46001 30.5067 5.46001 33.4933 7.00668 35.3333L10.6067 39.5733C11.2733 40.3733 11.8333 41.8667 11.8333 42.9067V47.4667C11.8333 50.2933 14.1533 52.6133 16.98 52.6133H21.5933C22.6333 52.6133 24.1533 53.1733 24.9533 53.8667L29.1667 57.4933C31.0067 59.0667 34.02 59.0667 35.8867 57.4933L40.1 53.8667C40.9 53.1733 42.3933 52.6133 43.46 52.6133H47.9933C50.82 52.6133 53.14 50.2933 53.14 47.4667V42.9333C53.14 41.8933 53.7 40.3733 54.3933 39.5733L58.02 35.36C59.5667 33.52 59.5667 30.48 57.9933 28.64ZM44.98 32L41.86 41.4933C41.46 43.0667 39.78 44.3467 38.0733 44.3467H33.14C32.2867 44.3467 31.0867 44.0533 30.5533 43.52L26.6333 40.4533C26.5533 42.16 25.78 42.88 23.8867 42.88H22.6067C20.6333 42.88 19.8333 42.1067 19.8333 40.24V27.4933C19.8333 25.6267 20.6333 24.8533 22.6067 24.8533H23.9133C25.8867 24.8533 26.6867 25.6267 26.6867 27.4933V28.4533L31.86 20.7733C32.3933 19.9467 33.7533 19.36 34.9 19.8133C36.1533 20.24 36.9533 21.6267 36.6867 22.8533L36.0467 27.0133C35.9933 27.3867 36.0733 27.7333 36.3133 28C36.5267 28.24 36.8467 28.4 37.1933 28.4H42.3933C43.4067 28.4 44.26 28.8 44.7667 29.52C45.22 30.2133 45.3 31.0933 44.98 32Z" fill="#171717"/>
</svg>
