<svg width="40" height="40" viewBox="0 0 40 40" fill="none" xmlns="http://www.w3.org/2000/svg">
<rect width="40" height="40" rx="20" fill="#171717"/>
<g clip-path="url(#clip0_103_1625)">
<path d="M15.63 11.57C15.8094 11.4722 16 11.6227 16 11.827V25.3828C16 25.6061 15.8476 25.7949 15.6502 25.8992C15.6434 25.9027 15.6367 25.9063 15.63 25.91L13.28 27.25C11.64 28.19 10.29 27.41 10.29 25.51V15.78C10.29 15.15 10.74 14.37 11.3 14.05L15.63 11.57Z" fill="#F1F1F1"/>
<path d="M22.7219 14.1023C22.8922 14.1866 23 14.3603 23 14.5503V27.7035C23 28.072 22.615 28.3139 22.283 28.1539L18.033 26.1063C17.86 26.023 17.75 25.8479 17.75 25.6559V12.4456C17.75 12.0747 18.1396 11.8329 18.4719 11.9975L22.7219 14.1023Z" fill="#F1F1F1"/>
<path d="M30 14.49V24.22C30 24.85 29.55 25.63 28.99 25.95L25.4986 27.951C25.1653 28.142 24.75 27.9013 24.75 27.5171V14.3303C24.75 14.1508 24.8462 13.9851 25.0021 13.8961L27.01 12.75C28.65 11.81 30 12.59 30 14.49Z" fill="#F1F1F1"/>
</g>
<defs>
<clipPath id="clip0_103_1625">
<rect width="24" height="24" fill="white" transform="translate(8 8)"/>
</clipPath>
</defs>
</svg>
