<svg width="24" height="25" viewBox="0 0 24 25" fill="none" xmlns="http://www.w3.org/2000/svg">
<path d="M17.5401 9.31001C19.1748 9.31001 20.5001 7.98478 20.5001 6.35001C20.5001 4.71525 19.1748 3.39001 17.5401 3.39001C15.9053 3.39001 14.5801 4.71525 14.5801 6.35001C14.5801 7.98478 15.9053 9.31001 17.5401 9.31001Z" fill="#F1F1F1"/>
<path d="M6.46 9.31001C8.09476 9.31001 9.42 7.98478 9.42 6.35001C9.42 4.71525 8.09476 3.39001 6.46 3.39001C4.82524 3.39001 3.5 4.71525 3.5 6.35001C3.5 7.98478 4.82524 9.31001 6.46 9.31001Z" fill="#F1F1F1"/>
<path d="M17.5401 21.61C19.1748 21.61 20.5001 20.2848 20.5001 18.65C20.5001 17.0152 19.1748 15.69 17.5401 15.69C15.9053 15.69 14.5801 17.0152 14.5801 18.65C14.5801 20.2848 15.9053 21.61 17.5401 21.61Z" fill="#F1F1F1"/>
<path d="M6.46 21.61C8.09476 21.61 9.42 20.2848 9.42 18.65C9.42 17.0152 8.09476 15.69 6.46 15.69C4.82524 15.69 3.5 17.0152 3.5 18.65C3.5 20.2848 4.82524 21.61 6.46 21.61Z" fill="#F1F1F1"/>
</svg>
