<svg width="25" height="24" viewBox="0 0 25 24" fill="none" xmlns="http://www.w3.org/2000/svg">
<path d="M16.6667 2H8.66675C4.66675 2 2.66675 4 2.66675 8V21C2.66675 21.55 3.11675 22 3.66675 22H16.6667C20.6667 22 22.6667 20 22.6667 16V8C22.6667 4 20.6667 2 16.6667 2ZM14.6667 15.25H7.66675C7.25675 15.25 6.91675 14.91 6.91675 14.5C6.91675 14.09 7.25675 13.75 7.66675 13.75H14.6667C15.0767 13.75 15.4167 14.09 15.4167 14.5C15.4167 14.91 15.0767 15.25 14.6667 15.25ZM17.6667 10.25H7.66675C7.25675 10.25 6.91675 9.91 6.91675 9.5C6.91675 9.09 7.25675 8.75 7.66675 8.75H17.6667C18.0767 8.75 18.4167 9.09 18.4167 9.5C18.4167 9.91 18.0767 10.25 17.6667 10.25Z" fill="#171717"/>
</svg>
