<svg width="16" height="16" viewBox="0 0 16 16" fill="none" xmlns="http://www.w3.org/2000/svg">
<path d="M11.3334 1.33331H4.66671C2.82671 1.33331 1.33337 2.81998 1.33337 4.65331V8.63998V9.30665C1.33337 11.14 2.82671 12.6266 4.66671 12.6266H5.66671C5.84671 12.6266 6.08671 12.7466 6.20004 12.8933L7.20004 14.22C7.64004 14.8066 8.36004 14.8066 8.80004 14.22L9.80004 12.8933C9.92671 12.7266 10.1267 12.6266 10.3334 12.6266H11.3334C13.1734 12.6266 14.6667 11.14 14.6667 9.30665V4.65331C14.6667 2.81998 13.1734 1.33331 11.3334 1.33331ZM5.33337 7.99998C4.96004 7.99998 4.66671 7.69998 4.66671 7.33331C4.66671 6.96665 4.96671 6.66665 5.33337 6.66665C5.70004 6.66665 6.00004 6.96665 6.00004 7.33331C6.00004 7.69998 5.70671 7.99998 5.33337 7.99998ZM8.00004 7.99998C7.62671 7.99998 7.33337 7.69998 7.33337 7.33331C7.33337 6.96665 7.63337 6.66665 8.00004 6.66665C8.36671 6.66665 8.66671 6.96665 8.66671 7.33331C8.66671 7.69998 8.37337 7.99998 8.00004 7.99998ZM10.6667 7.99998C10.2934 7.99998 10 7.69998 10 7.33331C10 6.96665 10.3 6.66665 10.6667 6.66665C11.0334 6.66665 11.3334 6.96665 11.3334 7.33331C11.3334 7.69998 11.04 7.99998 10.6667 7.99998Z" fill="#F1F1F1"/>
</svg>
