<svg width="24" height="24" viewBox="0 0 24 24" fill="none" xmlns="http://www.w3.org/2000/svg">
<path d="M20.25 11.5C20.25 16.3325 16.3325 20.25 11.5 20.25C6.66751 20.25 2.75 16.3325 2.75 11.5C2.75 6.66751 6.66751 2.75 11.5 2.75C16.3325 2.75 20.25 6.66751 20.25 11.5Z" fill="#171717" stroke="#171717" stroke-width="1.5"/>
<mask id="path-2-inside-1_319_1704" fill="white">
<path d="M21.3001 22C21.1201 22 20.9401 21.93 20.8101 21.8L18.9501 19.94C18.6801 19.67 18.6801 19.23 18.9501 18.95C19.2201 18.68 19.6601 18.68 19.9401 18.95L21.8001 20.81C22.0701 21.08 22.0701 21.52 21.8001 21.8C21.6601 21.93 21.4801 22 21.3001 22Z"/>
</mask>
<path d="M21.3001 22C21.1201 22 20.9401 21.93 20.8101 21.8L18.9501 19.94C18.6801 19.67 18.6801 19.23 18.9501 18.95C19.2201 18.68 19.6601 18.68 19.9401 18.95L21.8001 20.81C22.0701 21.08 22.0701 21.52 21.8001 21.8C21.6601 21.93 21.4801 22 21.3001 22Z" fill="#171717"/>
<path d="M20.8101 21.8L19.7494 22.8607L20.8101 21.8ZM18.9501 19.94L20.0107 18.8793L18.9501 19.94ZM18.9501 18.95L17.8894 17.8893L17.8798 17.899L17.8703 17.9088L18.9501 18.95ZM19.9401 18.95L21.0007 17.8893L20.9911 17.8797L20.9813 17.8702L19.9401 18.95ZM21.8001 20.81L22.8607 19.7493L21.8001 20.81ZM21.8001 21.8L22.8207 22.8992L22.8511 22.871L22.8798 22.8412L21.8001 21.8ZM21.3001 20.5C21.4968 20.5 21.7049 20.5735 21.8707 20.7393L19.7494 22.8607C20.1753 23.2865 20.7433 23.5 21.3001 23.5V20.5ZM21.8707 20.7393L20.0107 18.8793L17.8894 21.0007L19.7494 22.8607L21.8707 20.7393ZM20.0107 18.8793C20.3369 19.2055 20.3097 19.7009 20.0298 19.9912L17.8703 17.9088C17.0504 18.7591 17.0232 20.1345 17.8894 21.0007L20.0107 18.8793ZM20.0107 20.0107C19.6845 20.3369 19.1891 20.3097 18.8989 20.0298L20.9813 17.8702C20.131 17.0503 18.7556 17.0231 17.8894 17.8893L20.0107 20.0107ZM18.8794 20.0107L20.7394 21.8707L22.8607 19.7493L21.0007 17.8893L18.8794 20.0107ZM20.7394 21.8707C20.4132 21.5445 20.4404 21.0491 20.7203 20.7588L22.8798 22.8412C23.6997 21.9909 23.7269 20.6155 22.8607 19.7493L20.7394 21.8707ZM20.7794 20.7008C20.9108 20.5787 21.0934 20.5 21.3001 20.5V23.5C21.8668 23.5 22.4093 23.2813 22.8207 22.8992L20.7794 20.7008Z" fill="#171717" mask="url(#path-2-inside-1_319_1704)"/>
</svg>
