<svg width="48" height="48" viewBox="0 0 48 48" fill="none" xmlns="http://www.w3.org/2000/svg">
<rect width="48" height="48" rx="24" fill="#171717"/>
<path d="M30.0698 20.51L21.5098 16.23C15.7598 13.35 13.3998 15.71 16.2798 21.46L17.1498 23.2C17.3998 23.71 17.3998 24.3 17.1498 24.81L16.2798 26.54C13.3998 32.29 15.7498 34.65 21.5098 31.77L30.0698 27.49C33.9098 25.57 33.9098 22.43 30.0698 20.51ZM26.8398 24.75H21.4398C21.0298 24.75 20.6898 24.41 20.6898 24C20.6898 23.59 21.0298 23.25 21.4398 23.25H26.8398C27.2498 23.25 27.5898 23.59 27.5898 24C27.5898 24.41 27.2498 24.75 26.8398 24.75Z" fill="#F1F1F1"/>
</svg>
