<svg width="24" height="25" viewBox="0 0 24 25" fill="none" xmlns="http://www.w3.org/2000/svg">
<path d="M22.36 8.77L22.07 6C21.65 2.98 20.28 1.75 17.35 1.75H14.99H13.51H10.47H8.99002H6.59002C3.65002 1.75 2.29002 2.98 1.86002 6.03L1.59002 8.78C1.49002 9.85 1.78002 10.89 2.41002 11.7C3.17002 12.69 4.34002 13.25 5.64002 13.25C6.90002 13.25 8.11002 12.62 8.87002 11.61C9.55002 12.62 10.71 13.25 12 13.25C13.29 13.25 14.42 12.65 15.11 11.65C15.88 12.64 17.07 13.25 18.31 13.25C19.64 13.25 20.84 12.66 21.59 11.62C22.19 10.82 22.46 9.81 22.36 8.77Z" fill="#F1F1F1"/>
<path d="M11.35 17.16C10.08 17.29 9.12 18.37 9.12 19.65V22.39C9.12 22.66 9.33999 22.88 9.60999 22.88H14.38C14.65 22.88 14.87 22.66 14.87 22.39V20C14.88 17.91 13.65 16.92 11.35 17.16Z" fill="#F1F1F1"/>
<path d="M21.37 14.9V17.88C21.37 20.64 19.13 22.88 16.37 22.88C16.1 22.88 15.88 22.66 15.88 22.39V20C15.88 18.72 15.49 17.72 14.73 17.04C14.06 16.43 13.15 16.13 12.02 16.13C11.77 16.13 11.52 16.14 11.25 16.17C9.47001 16.35 8.12 17.85 8.12 19.65V22.39C8.12 22.66 7.9 22.88 7.63 22.88C4.87 22.88 2.63 20.64 2.63 17.88V14.92C2.63 14.22 3.32 13.75 3.97 13.98C4.24 14.07 4.51 14.14 4.79 14.18C4.91 14.2 5.04 14.22 5.16 14.22C5.32 14.24 5.48 14.25 5.64 14.25C6.8 14.25 7.94 13.82 8.84 13.08C9.70001 13.82 10.82 14.25 12 14.25C13.19 14.25 14.29 13.84 15.15 13.1C16.05 13.83 17.17 14.25 18.31 14.25C18.49 14.25 18.67 14.24 18.84 14.22C18.96 14.21 19.07 14.2 19.18 14.18C19.49 14.14 19.77 14.05 20.05 13.96C20.7 13.74 21.37 14.22 21.37 14.9Z" fill="#F1F1F1"/>
</svg>
