<svg width="24" height="25" viewBox="0 0 24 25" fill="none" xmlns="http://www.w3.org/2000/svg">
<g clip-path="url(#clip0_68_1502)">
<path d="M9 22.5H15C16.66 22.5 18 21.16 18 19.5V5.5C18 3.84 16.66 2.5 15 2.5H9C7.34 2.5 6 3.84 6 5.5V19.5C6 21.16 7.34 22.5 9 22.5Z" fill="#F1F1F1"/>
<path d="M4.5 6.43003V18.57C4.5 18.89 4.21 19.12 3.9 19.06C2.42 18.79 2 17.93 2 15.83V9.17003C2 7.07003 2.42 6.21003 3.9 5.94003C4.21 5.88003 4.5 6.11003 4.5 6.43003Z" fill="#F1F1F1"/>
<path d="M22 9.17003V15.83C22 17.93 21.58 18.79 20.1 19.06C19.79 19.12 19.5 18.88 19.5 18.57V6.43003C19.5 6.11003 19.79 5.88003 20.1 5.94003C21.58 6.21003 22 7.07003 22 9.17003Z" fill="#F1F1F1"/>
</g>
<defs>
<clipPath id="clip0_68_1502">
<rect width="24" height="24" fill="white" transform="translate(0 0.5)"/>
</clipPath>
</defs>
</svg>
