<svg width="40" height="40" viewBox="0 0 40 40" fill="none" xmlns="http://www.w3.org/2000/svg">
<path d="M22.8833 5.84999L25.8167 11.7167C26.2167 12.5333 27.2833 13.3167 28.1833 13.4667L33.5 14.35C36.9 14.9167 37.7 17.3833 35.25 19.8167L31.1167 23.95C30.4167 24.65 30.0333 26 30.25 26.9667L31.4333 32.0833C32.3667 36.1333 30.2167 37.7 26.6333 35.5833L21.65 32.6333C20.75 32.1 19.2667 32.1 18.35 32.6333L13.3667 35.5833C9.8 37.7 7.63333 36.1167 8.56667 32.0833L9.75 26.9667C9.96667 26 9.58333 24.65 8.88333 23.95L4.75 19.8167C2.31667 17.3833 3.1 14.9167 6.5 14.35L11.8167 13.4667C12.7 13.3167 13.7667 12.5333 14.1667 11.7167L17.1 5.84999C18.7 2.66666 21.3 2.66666 22.8833 5.84999Z" stroke="#171717" stroke-width="1.5" stroke-linecap="round" stroke-linejoin="round"/>
</svg>
